<?xml version="1.0" standalone="no"?>
<!DOCTYPE svg PUBLIC "-//W3C//DTD SVG 20010904//EN"
 "http://www.w3.org/TR/2001/REC-SVG-20010904/DTD/svg10.dtd">
<svg version="1.0" xmlns="http://www.w3.org/2000/svg"
 width="690.000000pt" height="900.000000pt" viewBox="0 0 690.000000 900.000000"
 preserveAspectRatio="xMidYMid meet">
<metadata>
Created by potrace 1.10, written by Peter Selinger 2001-2011
</metadata>
<g transform="translate(0.000000,900.000000) scale(0.100000,-0.100000)"
fill="#000000" stroke="none">
<path d="M5815 8950 c-11 -5 -59 -20 -107 -34 -99 -30 -255 -101 -337 -154
-31 -20 -64 -41 -73 -47 -37 -22 -223 -152 -272 -190 -28 -22 -64 -49 -81 -60
-66 -41 -815 -608 -815 -616 0 -5 -17 -17 -37 -28 -21 -11 -76 -51 -123 -90
-47 -39 -102 -83 -124 -97 -50 -33 -184 -142 -213 -173 -48 -50 -40 -91 23
-111 33 -11 36 -10 120 57 48 37 109 86 138 107 55 43 231 183 256 204 8 7 65
50 126 95 61 45 164 123 230 172 65 50 140 105 166 123 25 17 54 39 62 48 17
17 56 45 385 281 402 289 574 371 846 403 158 19 316 -12 446 -90 135 -80 189
-178 234 -418 8 -45 15 -99 15 -120 0 -20 5 -55 10 -77 13 -58 38 -653 45
-1070 3 -198 10 -421 15 -495 15 -216 12 -499 -5 -617 -17 -112 -59 -234 -103
-297 -15 -22 -65 -73 -112 -113 -47 -41 -112 -98 -144 -126 -33 -29 -71 -59
-85 -68 -14 -9 -48 -37 -74 -62 -26 -26 -50 -47 -52 -47 -7 0 -276 -222 -315
-260 -9 -8 -33 -28 -55 -45 -22 -16 -60 -48 -85 -70 -25 -23 -81 -71 -125
-108 -44 -37 -84 -71 -90 -77 -12 -11 -157 -132 -206 -172 -19 -15 -37 -28
-41 -28 -10 0 -29 39 -63 125 -30 77 -154 328 -190 384 -35 57 -115 208 -115
219 0 6 70 80 156 164 280 274 404 454 407 588 3 190 -32 1556 -42 1613 -10
60 -35 95 -90 125 -38 22 -45 23 -92 12 -39 -10 -53 -18 -60 -37 -5 -15 -9
-297 -9 -692 0 -366 0 -676 0 -688 0 -13 -11 -30 -24 -38 -23 -15 -27 -15 -50
0 l-26 17 0 662 0 661 -24 36 c-43 62 -112 83 -181 55 l-35 -15 0 -689 c0
-682 0 -690 -21 -716 -25 -31 -49 -33 -75 -5 -18 20 -19 50 -24 688 l-5 666
-23 33 c-30 42 -54 54 -109 54 -38 0 -51 -6 -80 -34 -19 -18 -45 -53 -57 -78
-20 -44 -21 -57 -21 -445 0 -220 3 -458 7 -530 4 -71 11 -261 17 -422 11 -295
14 -324 58 -468 29 -95 33 -104 134 -313 48 -97 76 -168 72 -175 -10 -16 -108
-106 -148 -136 -16 -12 -55 -45 -85 -71 -30 -27 -86 -74 -125 -105 -38 -31
-75 -63 -81 -70 -6 -8 -31 -29 -56 -47 -79 -56 -218 -172 -218 -180 0 -5 -10
-12 -22 -17 -13 -5 -43 -27 -68 -48 -25 -22 -63 -52 -85 -67 -22 -14 -78 -58
-125 -96 -47 -38 -101 -81 -120 -94 -19 -13 -41 -31 -49 -40 -20 -24 -39 -19
-45 12 -3 15 -10 133 -16 262 -5 129 -17 368 -25 530 -9 162 -16 356 -16 430
0 74 -4 176 -9 225 -9 83 -20 367 -40 1055 -5 194 -13 298 -24 354 -42 196
-131 296 -263 296 -56 0 -143 -31 -143 -51 0 -5 -6 -9 -14 -9 -50 0 -192 -265
-318 -595 -66 -171 -102 -271 -163 -450 -13 -38 -40 -115 -60 -170 -20 -55
-40 -113 -44 -130 -5 -16 -29 -95 -54 -175 -25 -80 -53 -174 -62 -210 -28
-103 -46 -163 -56 -188 -5 -13 -9 -32 -9 -42 0 -11 -6 -39 -13 -62 -34 -107
-77 -333 -77 -401 0 -116 58 -231 176 -351 120 -120 226 -196 403 -287 107
-55 174 -49 173 15 0 37 -26 63 -102 100 -116 58 -268 164 -355 248 -66 63
-94 98 -122 154 -35 71 -36 76 -29 151 4 43 12 105 18 138 13 69 83 363 100
415 17 57 34 111 53 175 9 33 23 76 30 95 7 19 54 163 105 320 51 157 99 299
106 315 12 29 30 77 58 153 18 49 46 122 57 147 4 11 33 83 64 159 77 193 150
330 192 362 19 14 52 28 74 31 49 7 81 -19 111 -87 38 -86 47 -166 57 -520 6
-190 15 -439 21 -555 14 -302 29 -657 41 -985 12 -345 26 -675 35 -867 l7
-142 -29 -25 c-16 -14 -67 -57 -114 -96 -47 -39 -110 -92 -140 -119 -30 -27
-100 -90 -156 -139 -100 -89 -204 -201 -204 -219 0 -5 -12 -20 -26 -34 -64
-59 -104 -185 -123 -389 -20 -202 -23 -357 -12 -560 7 -113 14 -248 16 -300
11 -220 53 -609 76 -695 30 -115 39 -138 83 -200 125 -179 356 -257 548 -185
94 35 215 153 266 261 43 89 45 130 33 571 -14 515 -27 855 -40 1113 -6 110
-16 335 -21 500 -6 165 -13 332 -17 371 l-6 71 89 73 c49 40 91 77 92 81 2 5
8 9 14 9 6 0 24 12 42 26 54 44 222 176 323 254 53 41 108 86 122 100 14 13
45 38 68 55 84 61 234 187 244 206 5 10 15 19 21 19 11 0 102 72 154 124 45
44 122 101 137 101 6 0 38 -47 70 -105 63 -112 217 -413 217 -423 0 -4 11 -30
24 -59 52 -112 57 -130 44 -149 -7 -10 -78 -73 -158 -141 -280 -239 -364 -338
-440 -523 -30 -73 -35 -159 -35 -605 0 -614 34 -1314 71 -1479 47 -209 155
-366 297 -435 68 -33 199 -59 262 -53 97 10 157 41 242 126 81 81 126 155 158
259 15 46 16 85 9 310 -4 141 -9 320 -11 397 -22 916 -45 1308 -94 1594 -19
109 -68 316 -100 421 -26 84 -24 92 28 140 26 25 58 52 69 60 12 8 62 49 110
92 49 42 141 119 204 173 63 53 135 114 160 136 25 22 72 61 105 87 33 26 67
54 76 62 9 8 62 53 119 100 57 47 124 103 150 125 25 22 100 83 166 135 138
110 214 185 250 246 37 62 94 212 94 245 0 38 18 82 30 74 7 -4 10 135 10 411
0 361 -2 418 -15 428 -16 11 -17 35 -30 706 -12 663 -56 1023 -147 1204 -40
79 -149 177 -255 230 -120 60 -155 66 -395 65 -123 0 -232 -4 -243 -9z m-541
-1405 c13 -52 26 -321 26 -555 0 -135 5 -384 10 -555 17 -526 18 -482 -16
-550 -54 -107 -116 -185 -286 -357 -134 -137 -171 -169 -189 -166 -40 5 -168
276 -220 464 -17 64 -23 122 -29 304 -5 124 -11 251 -14 282 -9 90 -12 1081
-3 1102 26 65 37 -56 57 -679 20 -608 23 -626 109 -674 40 -22 47 -23 80 -11
44 15 68 36 89 75 18 36 20 290 7 906 -6 311 -5 398 4 404 33 20 36 -12 42
-523 7 -508 17 -664 50 -762 36 -106 129 -144 190 -77 69 73 64 29 62 592 -1
280 -7 565 -12 633 -7 89 -7 130 1 148 14 31 34 31 42 -1z m-80 -3347 c19 -31
80 -288 117 -488 32 -181 52 -541 86 -1574 17 -551 17 -553 -34 -663 -14 -28
-33 -59 -44 -69 -10 -9 -19 -23 -19 -31 0 -18 -103 -83 -159 -100 -75 -22
-192 8 -278 73 -68 51 -140 188 -171 324 -48 210 -86 1625 -51 1899 7 57 20
104 40 145 40 80 162 242 200 265 26 16 132 105 248 208 43 39 47 39 65 11z
m-1850 -360 c3 -51 8 -172 11 -268 4 -96 9 -218 12 -270 3 -52 9 -212 13 -355
5 -143 14 -370 20 -505 6 -135 12 -396 13 -580 l2 -335 -25 -45 c-31 -58 -123
-150 -178 -178 -31 -16 -60 -22 -109 -22 -81 0 -142 21 -203 69 -133 106 -155
177 -195 631 -55 625 -54 1096 2 1300 30 109 71 167 222 318 78 78 145 142
147 142 3 0 55 43 116 95 60 52 118 95 128 95 16 0 19 -12 24 -92z"/>
<path d="M2070 6302 c-14 -10 -43 -34 -65 -54 -22 -20 -78 -70 -124 -110 -262
-227 -311 -269 -385 -331 -45 -38 -85 -75 -89 -84 -5 -8 -22 -22 -38 -32 -16
-10 -66 -52 -112 -94 -45 -41 -118 -106 -163 -144 -104 -87 -310 -268 -349
-305 -77 -72 -241 -217 -288 -252 -29 -22 -113 -101 -188 -175 -130 -129 -139
-141 -187 -241 -69 -143 -82 -202 -82 -370 0 -243 54 -377 226 -560 112 -119
123 -128 329 -280 319 -234 324 -237 515 -368 36 -24 67 -47 70 -51 3 -4 41
-32 85 -62 44 -29 85 -58 92 -64 6 -5 56 -40 110 -78 120 -83 143 -98 235
-164 117 -83 218 -154 312 -218 49 -33 120 -83 160 -111 107 -77 133 -89 163
-73 34 18 47 54 31 87 -13 25 -136 117 -313 232 -49 32 -112 76 -140 98 -27
21 -104 76 -170 121 -66 45 -167 116 -225 157 -58 41 -134 95 -170 120 -80 55
-204 143 -474 339 -114 83 -217 157 -229 165 -12 8 -74 54 -137 101 -112 85
-141 111 -171 155 -8 12 -32 48 -54 80 -81 118 -118 237 -117 374 0 109 18
193 57 277 32 67 130 212 157 231 27 20 168 142 208 182 20 19 63 57 95 83 59
48 102 86 283 248 52 46 120 106 153 132 33 26 84 72 114 102 30 30 57 55 61
55 3 0 40 31 83 68 157 141 238 212 397 347 62 52 114 102 118 110 3 8 10 15
16 15 12 0 190 150 190 161 0 3 17 18 38 32 64 43 102 83 112 117 5 18 7 37 4
41 -10 17 -118 10 -144 -9z"/>
<path d="M6713 4414 c-3 -8 -1 -552 6 -1207 16 -1722 15 -2478 -5 -2592 -41
-235 -192 -396 -434 -462 -93 -25 -387 -25 -480 0 -70 19 -177 65 -250 108
-25 14 -91 50 -145 79 -91 48 -247 135 -525 293 -58 32 -123 69 -145 81 -75
42 -580 333 -710 410 -71 42 -153 88 -181 103 -51 26 -52 26 -77 7 -21 -15
-26 -28 -27 -61 0 -44 -1 -44 120 -111 25 -13 64 -38 88 -53 24 -16 44 -29 46
-29 6 0 289 -161 316 -180 14 -9 50 -30 80 -47 30 -16 116 -65 190 -108 74
-42 143 -81 155 -86 11 -5 34 -18 50 -29 35 -22 29 -19 265 -150 102 -57 199
-111 215 -121 28 -16 74 -41 260 -139 97 -51 199 -90 265 -102 87 -16 386 -21
455 -8 94 18 163 41 255 87 192 95 300 252 351 508 9 46 10 385 3 1415 -7
1279 -18 2402 -22 2408 -1 1 -27 2 -57 2 -41 0 -57 -4 -62 -16z"/>
</g>
</svg>
